<mxfile host="app.diagrams.net" modified="2023-09-11T20:41:49.392Z" agent="Mozilla/5.0 (Windows NT 10.0; Win64; x64) AppleWebKit/537.36 (KHTML, like Gecko) Chrome/116.0.0.0 Safari/537.36" etag="IgLppfBONGtj8T1kpUeI" version="21.7.4" type="github">
  <diagram name="Page-1" id="2YBvvXClWsGukQMizWep">
    <mxGraphModel dx="792" dy="1140" grid="1" gridSize="10" guides="1" tooltips="1" connect="1" arrows="1" fold="1" page="1" pageScale="1" pageWidth="850" pageHeight="1100" math="0" shadow="0">
      <root>
        <mxCell id="0" />
        <mxCell id="1" parent="0" />
        <mxCell id="JBXHA6azfRCaiwlp7KNp-10" value="Send(J)" style="rounded=0;whiteSpace=wrap;html=1;" vertex="1" parent="1">
          <mxGeometry x="100" y="90" width="120" height="60" as="geometry" />
        </mxCell>
        <mxCell id="JBXHA6azfRCaiwlp7KNp-11" value="E F G H U" style="rounded=0;whiteSpace=wrap;html=1;" vertex="1" parent="1">
          <mxGeometry x="90" y="270" width="400" height="60" as="geometry" />
        </mxCell>
        <mxCell id="JBXHA6azfRCaiwlp7KNp-12" value="" style="endArrow=classic;html=1;rounded=0;exitX=0.5;exitY=1;exitDx=0;exitDy=0;entryX=0.173;entryY=-0.1;entryDx=0;entryDy=0;entryPerimeter=0;" edge="1" parent="1" source="JBXHA6azfRCaiwlp7KNp-10" target="JBXHA6azfRCaiwlp7KNp-11">
          <mxGeometry width="50" height="50" relative="1" as="geometry">
            <mxPoint x="300" y="380" as="sourcePoint" />
            <mxPoint x="350" y="330" as="targetPoint" />
          </mxGeometry>
        </mxCell>
        <mxCell id="JBXHA6azfRCaiwlp7KNp-13" value="push" style="text;html=1;strokeColor=none;fillColor=none;align=center;verticalAlign=middle;whiteSpace=wrap;rounded=0;" vertex="1" parent="1">
          <mxGeometry x="160" y="190" width="60" height="30" as="geometry" />
        </mxCell>
        <mxCell id="JBXHA6azfRCaiwlp7KNp-14" value="5Byte" style="shape=callout;whiteSpace=wrap;html=1;perimeter=calloutPerimeter;" vertex="1" parent="1">
          <mxGeometry x="370" y="190" width="120" height="80" as="geometry" />
        </mxCell>
        <mxCell id="JBXHA6azfRCaiwlp7KNp-15" value="&lt;h1&gt;블로킹 발생&lt;/h1&gt;&lt;div&gt;최대 버퍼를 넘어서는 send 가 호출 되었을 때는 블로킹하고 버퍼의 자리가 생길 때까지 기다린다.&lt;/div&gt;" style="text;html=1;strokeColor=none;fillColor=none;spacing=5;spacingTop=-20;whiteSpace=wrap;overflow=hidden;rounded=0;" vertex="1" parent="1">
          <mxGeometry x="260" y="50" width="190" height="120" as="geometry" />
        </mxCell>
      </root>
    </mxGraphModel>
  </diagram>
</mxfile>
